<svg id="logo" xmlns="http://www.w3.org/2000/svg" xmlns:xlink="http://www.w3.org/1999/xlink" width="542.856" height="58" viewBox="0 0 542.856 58">
  <defs>
    <clipPath id="clip-path">
      <rect id="Rectangle_296" data-name="Rectangle 296" width="542.856" height="58" fill="none"/>
    </clipPath>
  </defs>
  <g id="Group_389" data-name="Group 389" transform="translate(0 0)" clip-path="url(#clip-path)">
    <path id="Path_434" data-name="Path 434" d="M155.612,33.616a4.388,4.388,0,0,0-5.914,1.74,4.757,4.757,0,0,0,8.585,3.825,4.4,4.4,0,0,0-2.67-5.563" transform="translate(42.724 9.455)" fill="#ff0017"/>
    <path id="Path_435" data-name="Path 435" d="M184.319,12.733a16.846,16.846,0,0,1-.723-3.626c-.149-1.509-1.326-1.286-1.326-1.286-.939.156-.9,1.374-.9,1.374l-.185,11.1-1.443-2.208a11.836,11.836,0,0,0-2.443-2.672,6.472,6.472,0,0,0-3.888-.9H142.351a3.282,3.282,0,0,1-3.066-1.6,16.059,16.059,0,0,1-.86-3.928c-.2-.422-.121-1.14-1.134-1.14s-.993,1.331-.993,1.331l-.226,11-.9-1.4a16.789,16.789,0,0,0-2.55-3.011,5.521,5.521,0,0,0-3.471-1.229l-21.2-.024H49.7a2.993,2.993,0,0,1-3.281-2.674,11.481,11.481,0,0,1-.3-2.547C45.89,8.147,45.1,8.018,45.1,8.018c-1.286-.345-1.286,1.112-1.286,1.112l-.343,10.977a23.32,23.32,0,0,0-2.844-3.857c-1.821-2.019-5.958-1.724-5.958-1.724H0V19.84L16.822,19.8c.786.3.6.643.6.643a7.629,7.629,0,0,0-3.81,1.356,5.946,5.946,0,0,0-2.083,7.1,5.408,5.408,0,0,0,4.951,3.7,3.965,3.965,0,0,0,3.432-1.2c3.214-2.281,1.7-6.744,1.7-6.744a3.862,3.862,0,0,1,1.693.652,6.115,6.115,0,0,1,2.125,4.463A7.228,7.228,0,0,1,23.007,35.1c-5.352,4.463-10.482-.192-10.482-.192C7.757,31.094,3.419,22.447,3.419,22.447c-.68-1.968-1.4-1.706-1.4-1.706-1.812.235-.827,2.123-.827,2.123l1.246,2.525C7,35.9,11.528,39.9,11.528,39.9c9.63,9.041,15.746-.708,15.746-.708a19.427,19.427,0,0,1,4.675,6.269,18.4,18.4,0,0,1,1.8,5.493c.109,2.709,1.556,2.277,1.556,2.277,1.122-.05,1.009-2.274,1.009-2.274V19.772a6.709,6.709,0,0,1,4.774,1.455,7.056,7.056,0,0,1,2.241,5.127L42.9,48.727l5.293,5.5L48,19.829H66.3L66,32.016a26.923,26.923,0,0,0-3.358-4.99,7.113,7.113,0,0,0-6.839-2.614,8.006,8.006,0,0,0-5.786,7.962c.032,8.415,6.233,8.256,6.233,8.256,6.7-.393,5.547-7.377,5.547-7.377,2.656,1.48,4.828,6.435,4.828,6.435a36.889,36.889,0,0,1,2.213,12.063c.1,1.671,1.242,1.477,1.242,1.477,1.166.063,1.009-1.644,1.009-1.644L71.009,19.8H86.684V28l-1.4-2.454a6.708,6.708,0,0,0-6.831-3.744,6.171,6.171,0,0,0-4.818,5.058c-.832,6.5,3.651,7.6,3.651,7.6a4.535,4.535,0,0,0,5.783-2.771c.039-.109.073-.22.1-.332a5.632,5.632,0,0,0,.107-3.214,5.6,5.6,0,0,1,1.257,1.063,11.523,11.523,0,0,1,1.92,4.865,8.89,8.89,0,0,1-1.506,6.106c-.478.759.192,1.029.192,1.029A20.6,20.6,0,0,0,89.429,44.4c1.331.711,1.353-.347,1.353-.347l.171-.45a25.308,25.308,0,0,1,6.11-8.118c-2.6,11.178,3.775,17.1,3.775,17.1.726.935,1.459.7,1.459.7a1.058,1.058,0,0,0,.3-1.671,17.482,17.482,0,0,1-2.632-7.329,15.827,15.827,0,0,1,1.517-7.816,32.33,32.33,0,0,1,4.074-5.37,1.036,1.036,0,0,0,.181-1.21,22.088,22.088,0,0,0-4.229-5.4.41.41,0,0,0-.408-.117c-4.231,1.587-9.552,6.765-9.552,6.765V19.772h16.4v-.021H123.91v.612c-13.081,6.278-16.588,9.944-16.588,9.944l4.3,7.033c13.886.521,14.991,14.5,14.991,14.5.159,1.52,1.211,1.423,1.211,1.423,1.134.045,1.009-1.7,1.009-1.7l.042-31.814a6.668,6.668,0,0,1,6.952,5.989l-.408,23.5,5.079,4.962V19.75h11.793c-2.745,2.656-2.971,7.854-2.971,7.854.573,3.385.846,6.1,4.32,8.357a6.1,6.1,0,0,0,8.556-1.094,6.3,6.3,0,0,0,.375-.545c-.166,4.792-2.043,7.071-5.2,7.141-3.145.049-4.49-.708-7.071-4.148-2.553-3.453-4.778-12.632-4.951-14.737s-1.637-1.929-1.637-1.929c-.991.226-.874,1.7-.874,1.7A91.106,91.106,0,0,0,146.5,36.831c3.574,10.752,7.65,11.829,9.591,12.151,4.479.757,7.212-1.625,8.92-6.078,1.929-5.014,1.187-10.7-1.225-13.964-2.384-3.27-4.431-2.685-4.431-2.685l-.878.939c-.283,3.682-2.8,3.381-2.8,3.381-3.326.114-1.455-4.271-1.455-4.271,1.391-2.912,5.49-4.965,5.49-4.965.631,1.612.987,2.515,3.91,5.1a10.547,10.547,0,0,0,5.193,2.8c-3.966,9.69,1.584,22.227,1.584,22.227.771,2.085,2.042,1.754,2.042,1.754,1.377-.557.064-3.042.064-3.042-6.3-15.3,4.886-22.414,4.886-22.414a14.762,14.762,0,0,0-4.782-6.251,1.63,1.63,0,0,0-2.246.519,1.6,1.6,0,0,0-.152.314c-.942,2.766-4.14,1.632-4.14,1.632-4.269-1.229-4.5-4.235-4.5-4.235h12.609c6.074,0,6.785,6.043,6.785,6.043L180.5,49.161l5.079,5.026V19.75h18.608v.612c-13.076,6.279-16.586,9.945-16.586,9.945l4.293,7.033c13.908.521,15,14.529,15,14.529.156,1.509,1.219,1.4,1.219,1.4,1.144.024,1-1.7,1-1.7V19.75h4.077V14.529H187.6c-2.9,0-3.28-1.8-3.28-1.8M31.28,38.96A46.19,46.19,0,0,0,28.6,35.079c1.32-6.549-1.809-10.029-1.809-10.029a10.668,10.668,0,0,0-5.43-4.122,4.536,4.536,0,0,0-.5-1.129l10.8.036Zm92.743-.681a39.227,39.227,0,0,0-5.666-5.143l-1.966-1.466a82.186,82.186,0,0,1,7.632-4.452Zm79.888,0a39.977,39.977,0,0,0-5.67-5.143l-1.956-1.466a82.833,82.833,0,0,1,7.626-4.452Z" transform="translate(0 2.231)" fill="#ee303b"/>
    <path id="Path_436" data-name="Path 436" d="M280.745,16.141a3.226,3.226,0,0,1-2.314-.581c-1.336-1.02-1.385-4.175-1.385-4.175.082-2.4-1.414-1.99-1.414-1.99s-.939-.063-.847,2.04L274.5,22.058a13.367,13.367,0,0,0-3.343-4.528s-.868-1.342-3.9-1.387H246.246s3.936-1.905,4.6-4.782-.1-4.164-1.81-4.911c0,0-3.729-1.052-3.776,2.422l.156,1.207s.825,2.8-3.248,4.229c0,0-3.244,1.835-8.911-1.736,0,0-7.843-5.444-9.129-6.58,0,0-6.267-5.815-13.886-3.1,0,0-5.217,1.346-10.869,9.152l3.7,4.1h-5.135a3.574,3.574,0,0,1-3.028-2.965s.071-3.248-.755-3.747a1.029,1.029,0,0,0-1.579.878l-.446,12.762s-6.952-11.777-15.094-5.966a17.085,17.085,0,0,0-5.6,7.106s-2.557,6.429,1.9,6.722a2.443,2.443,0,0,0,2.951-.977s1.8-2.269,3.311-1.434.528,3.1-.379,3.928a5.855,5.855,0,0,1-3.169,1.671s-.712.931.63,1.391a.505.505,0,0,0,.129.036l3.241,1.3a3.639,3.639,0,0,0,2.974.325,2.442,2.442,0,0,0,1.116-1.009l.836-1.108,6.477-8.56.455.3-.271,8.716-.489,14.711,5.444,5.6.085-20.622.06-13.843h5.957L202.321,35.5l-.386,14.86,5.295,5.454V21.362h19.687A18.789,18.789,0,0,0,219.3,29.5a11.151,11.151,0,0,0-.129,6c.573,1.71,1.954,3.163,4.886,3.369,0,0,4.207.343,5.458-3.369h.006c.018-.032.018-.082.042-.129a.19.19,0,0,1,.006-.06h-.006a8.7,8.7,0,0,0,.234-2.493,4.72,4.72,0,0,0-2.49-3.4s2.642-3.4,4.976-4.3L231.939,35.5l-.333,9.951s-3.308-3.262-12.151-4.015c0,0-8.308.832-7.543-5.22,0,0,.014-.492.075-.918a5.578,5.578,0,0,1,1.279-2.55,1.337,1.337,0,0,1,.33-.257,1.171,1.171,0,0,1,.867-.117,1.857,1.857,0,0,0,1.754-1.246l.021-.05a3.585,3.585,0,0,0,.271-1.453A2.216,2.216,0,0,0,216,28s-2.139-2.2-4.541,1.2a17.066,17.066,0,0,0-1.905,6.3,13.343,13.343,0,0,0,.842,6.389s1.728,6.2,8.229,6.506c0,0,1.738.458,5.822-.6a8.807,8.807,0,0,1,8.142,1.661s1.427.906,2.111,4.073c0,0,.17,1.6,1.431,1.311,0,0,.86,0,.842-2.057V23.748L234.1,21.362h20.76v.8a65.54,65.54,0,0,0-15.476,9.225l2.426,4.114,1.881,3.214s11.946-.528,13.076,12.93c0,0-.045,3.223,1.5,3.223,0,0,1.25.163,1.207-2.242V27s7.172.163,7.852,5.514c0,0-4.526-1.881-6.11,2.352a4.61,4.61,0,0,0-.174.643,4.5,4.5,0,0,0,3.119,5.547l.06.017s5.014,1.569,5.886-4.917a6.367,6.367,0,0,0,.075-.643h.008c0-.032.006-.082.006-.129v-.1c.426-5.84-2.964-11.746-10.723-13.263v-.658h8.007a6.344,6.344,0,0,1,6.708,5.337l-.107,8.8-.2,15.161,5.059,5.068V21.362h4.906V16.141ZM182.862,27.762c-.6.456-.8-.408-.8-.408A3.144,3.144,0,0,0,179.59,25.4c-.7-.053.036-1,.036-1a15.078,15.078,0,0,1,2.771-3.034c3.623-2.7,5.529.58,5.529.58Zm23.832-11.622-1.211-1.524S211.6,3.876,222.84,8.42c0,0,3.708,2.107,4.834,2.872,0,0,4.757,3.9,7.86,4.848Zm47.9,19.065V39.65a14.8,14.8,0,0,0-3.986-4.146c-1.827-1.391-3.524-2.452-3.524-2.452a81.286,81.286,0,0,1,7.516-4.663Z" transform="translate(48.773 0.62)" fill="#ee303b"/>
    <path id="Path_437" data-name="Path 437" d="M310.229,52.042h-.89l-4.415-3.214a22.433,22.433,0,0,0-7.685-7.272,11.136,11.136,0,0,1-4.033,3.65,12.2,12.2,0,0,1-5.889,1.355,14.848,14.848,0,0,1-12.041-5.786Q270.565,34.99,267.3,22.89l2.885-.972q3.061,8.686,6.846,12.587a12.6,12.6,0,0,0,9.436,3.9,11.259,11.259,0,0,0,6.315-1.59,5.724,5.724,0,0,0,2.4-5.152,5.13,5.13,0,0,0-1.324-3.812,5.681,5.681,0,0,0-3.18-1.6l.089,1.531q0,5.859-6.154,5.859a6.069,6.069,0,0,1-4.476-1.767,6.179,6.179,0,0,1-1.765-4.564,5.31,5.31,0,0,1,1.884-4.328,8.264,8.264,0,0,1,4.829-1.767,14.616,14.616,0,0,0-3.3-2.679H266.891l-2.443-4.71h49.608l2.443,4.71h-6.272Zm-5.3-33.5H287.381a16.207,16.207,0,0,1,1.972,3,11.806,11.806,0,0,1,5.433,2.767,13.154,13.154,0,0,1,3.343,4.757,14.488,14.488,0,0,1,1.119,5.55,13.086,13.086,0,0,1-.265,2.62,28.261,28.261,0,0,1,5.948,7.39Z" transform="translate(75.557 3.949)" fill="#5b5b5b"/>
    <path id="Path_438" data-name="Path 438" d="M332.6,52.04h-.771l-4.533-3.214V41.064a14.183,14.183,0,0,0-3.621-5.107,10.807,10.807,0,0,0-4.829-2.547,7.331,7.331,0,0,1-1.575,6.359,6.8,6.8,0,0,1-4.9,1.679,6.5,6.5,0,0,1-4.9-1.944,7.035,7.035,0,0,1-1.869-5.093,6.944,6.944,0,0,1,2.326-5.491,9.067,9.067,0,0,1,6.211-2.047,12.306,12.306,0,0,1,8.141,2.782,18.613,18.613,0,0,1,5.2,7.11q-.177-2.65-.176-6.3V18.541H305.041l-2.862-4.71h34.24l2.443,4.71H332.59Z" transform="translate(86.338 3.952)" fill="#5b5b5b"/>
    <path id="Path_439" data-name="Path 439" d="M365.645,52.04h-.825l-4.474-3.214V33.4a6.981,6.981,0,0,0-5.446-3.033q-3.651,0-3.65,4.857l-1.62-.386a7.537,7.537,0,0,0-2.871-3.43,9.091,9.091,0,0,0-4.725-1.075,8.038,8.038,0,0,0-4.652,1.237,4.112,4.112,0,0,0-1.8,3.621A4.6,4.6,0,0,0,336.2,37.6a3.832,3.832,0,0,0,1.679,1.531v-.411a4.26,4.26,0,0,1,1.251-3.194,4.657,4.657,0,0,1,3.4-1.223,4.829,4.829,0,0,1,3.636,1.383,5.153,5.153,0,0,1,1.342,3.75,4.508,4.508,0,0,1-1.59,3.709,6.65,6.65,0,0,1-4.328,1.305A8.429,8.429,0,0,1,337,43.115a9.451,9.451,0,0,1-3.4-3.945A13.848,13.848,0,0,1,332.312,33a11.93,11.93,0,0,1,2.458-7.788,7.751,7.751,0,0,1,6.286-3.018,6.745,6.745,0,0,1,4.416,1.4,13.5,13.5,0,0,1,3.126,3.929,7.668,7.668,0,0,1,1.664-3.885,3.822,3.822,0,0,1,2.929-1.3,5.108,5.108,0,0,1,3.857,1.885,23.077,23.077,0,0,1,3.444,5.565q-.148-2.266-.148-4.917V18.541h-30l-2.443-4.71h41.571l2.443,4.71H365.64Z" transform="translate(93.686 3.952)" fill="#5b5b5b"/>
    <path id="Path_440" data-name="Path 440" d="M371.153,53.1h-.883l-4.416-3.18v-27a4.509,4.509,0,0,0-4.386-3.3h-.413L358.7,14.909h2.326a3.889,3.889,0,0,1,2.65,1.326,12.379,12.379,0,0,1,2.443,3.68,23.376,23.376,0,0,1-.265-4.476V10.052h.235l5.005,3.086v1.772h3.974l2.443,4.71H371.15Z" transform="translate(102.486 2.872)" fill="#5b5b5b"/>
    <path id="Path_441" data-name="Path 441" d="M399.74,58a41.724,41.724,0,0,0-10.983-7.876,33.376,33.376,0,0,0-12.423-2.694l-1.62-8.244a30.286,30.286,0,0,0,4.828,1.1,33.062,33.062,0,0,0,4.886.4,18.82,18.82,0,0,0,8.009-1.31,4.7,4.7,0,0,0,2.65-4.608,4.57,4.57,0,0,0-1.6-3.666,6.865,6.865,0,0,0-4.578-1.369l-1.53.089v.559a6.407,6.407,0,0,1-1.488,4.71,6.229,6.229,0,0,1-4.548,1.472,5.86,5.86,0,0,1-4.092-1.414,5.238,5.238,0,0,1-1.561-4.092,4.807,4.807,0,0,1,1.723-3.885,9.312,9.312,0,0,1,4.845-1.855,12.131,12.131,0,0,0-3.387-2.829H372.89l-2.443-4.71h24.488a9.121,9.121,0,0,0-1.531-4.152,3.856,3.856,0,0,0-3.214-1.324q-1.15,0-3.592.265a51.987,51.987,0,0,1-5.271.354q-4.885,0-7.169-2.532a10.5,10.5,0,0,1-2.282-7.272A23.669,23.669,0,0,1,372.1,0l3,.265L375.04,1.5a4.873,4.873,0,0,0,1.074,3.577q1.074,1.045,4.521,1.045a44.544,44.544,0,0,0,4.534-.294q2.472-.235,3.5-.235a7.725,7.725,0,0,1,6.462,2.829q2.224,2.829,2.871,9.363h3.5l2.443,4.71H384.664a12.772,12.772,0,0,1,1.656,2.678,14.794,14.794,0,0,1,9.3,3.533,10.285,10.285,0,0,1,3.533,7.979,9.8,9.8,0,0,1-2.047,6.27,12.265,12.265,0,0,1-5.667,3.885,44.364,44.364,0,0,1,10.394,9.1Z" transform="translate(105.843 0)" fill="#5b5b5b"/>
    <path id="Path_442" data-name="Path 442" d="M424.1,52.04h-.771L418.8,48.826V41.064a14.189,14.189,0,0,0-3.61-5.108,10.807,10.807,0,0,0-4.829-2.547,7.327,7.327,0,0,1-1.575,6.359,6.8,6.8,0,0,1-4.91,1.679,6.5,6.5,0,0,1-4.9-1.944A7.035,7.035,0,0,1,397.1,34.41a6.944,6.944,0,0,1,2.326-5.491,9.067,9.067,0,0,1,6.211-2.047,12.306,12.306,0,0,1,8.141,2.782,18.613,18.613,0,0,1,5.2,7.11q-.177-2.65-.176-6.3V18.541H396.543l-2.856-4.71h34.24l2.443,4.71H424.1Z" transform="translate(112.483 3.952)" fill="#5b5b5b"/>
  </g>
</svg>
