<svg id="tt_logo" data-name="tt logo" xmlns="http://www.w3.org/2000/svg" xmlns:xlink="http://www.w3.org/1999/xlink" width="161.287" height="20" viewBox="0 0 161.287 20">
  <defs>
    <clipPath id="clip-path">
      <rect id="Rectangle_290" data-name="Rectangle 290" width="161.287" height="20" fill="none"/>
    </clipPath>
  </defs>
  <g id="Group_386" data-name="Group 386" clip-path="url(#clip-path)">
    <path id="Path_416" data-name="Path 416" d="M681.257,15.583h-5.014v-.257c.056-.008.114-.014.171-.023a.985.985,0,0,0,.894-.914,3.666,3.666,0,0,0,.036-.513q0-3.312,0-6.624a2.254,2.254,0,0,0-.171-.939,1.325,1.325,0,0,0-.989-.822.958.958,0,0,0-.872.236,2.06,2.06,0,0,0-.726,1.577c-.005,1.484,0,2.969,0,4.453,0,.7,0,1.4,0,2.1a3.752,3.752,0,0,0,.034.49,1.029,1.029,0,0,0,.9.941c.073.013.147.022.238.036v.241h-5.042v-.236c.108-.018.217-.036.325-.056a1.236,1.236,0,0,0,1.068-1.267c0-.992,0-1.984,0-2.977q0-4.621,0-9.243a2.6,2.6,0,0,0-.071-.641,1.137,1.137,0,0,0-.984-.886c-.1-.017-.206-.032-.33-.05-.005-.056-.012-.118-.019-.2h3.905c0,.1,0,.183,0,.27-.014,1.343-.034,2.685-.04,4.028,0,.425.027.85.044,1.274,0,.072.018.143.035.274l.175-.224A2.716,2.716,0,0,1,676.353,4.6a3.017,3.017,0,0,1,2.071.231,2.14,2.14,0,0,1,.946.954,4.043,4.043,0,0,1,.4,1.342,14.186,14.186,0,0,1,.026,2.836c-.054.93-.109,1.861-.145,2.792A4.76,4.76,0,0,0,679.776,14a2.8,2.8,0,0,0,.08.279,1.364,1.364,0,0,0,1.4,1.031Z" transform="translate(-574.111 -0.015)" fill="#333"/>
    <path id="Path_417" data-name="Path 417" d="M73.626,15.328v.235H68.575v-.236c.131-.022.257-.034.378-.066a1.288,1.288,0,0,0,1.015-1.278Q69.96,7.84,69.961,1.7a2.183,2.183,0,0,0-.1-.637A1.12,1.12,0,0,0,68.95.266c-.117-.023-.236-.035-.373-.056-.005-.058-.011-.12-.018-.2h3.868c0,.085.008.171.007.257,0,1.507-.007,3.014,0,4.521,0,.29.025.581.041.871a1.443,1.443,0,0,0,.038.182l.181-.232a2.614,2.614,0,0,1,1.73-1.061,3.043,3.043,0,0,1,1.892.3,2.253,2.253,0,0,1,1,1.113,4.772,4.772,0,0,1,.36,1.516,16.331,16.331,0,0,1-.026,2.592c-.056.9-.106,1.8-.14,2.7a4.439,4.439,0,0,0,.124,1.243,2.855,2.855,0,0,0,.182.526,1.225,1.225,0,0,0,.977.731l.3.046v.24h-5v-.243c.056-.008.106-.013.155-.021a1.021,1.021,0,0,0,.92-.947,3.6,3.6,0,0,0,.034-.49q0-3.3,0-6.6a2.133,2.133,0,0,0-.252-1.1,1.329,1.329,0,0,0-.926-.676.926.926,0,0,0-.852.226,2.072,2.072,0,0,0-.727,1.577c-.006,1.253,0,2.507,0,3.76,0,.94,0,1.88,0,2.82a3.6,3.6,0,0,0,.031.468,1.034,1.034,0,0,0,.919.952c.073.013.146.022.237.036" transform="translate(-58.685 -0.012)" fill="#333"/>
    <path id="Path_418" data-name="Path 418" d="M1.59,20.755v-.233c.191-.037.374-.066.553-.11a2.117,2.117,0,0,0,.816-.4,1.514,1.514,0,0,0,.612-1.256q-.011-5.27,0-10.542,0-.7,0-1.41c0-.266-.029-.295-.3-.278A1.979,1.979,0,0,0,2.126,7a3.537,3.537,0,0,0-.81.977,7.632,7.632,0,0,0-.8,2.1,9.786,9.786,0,0,0-.259,1.94H.045C0,11.835-.017,6.471.023,6.122c.155-.048,9.407-.07,9.841-.021v5.91l-.2.02a.823.823,0,0,1-.019-.1,9.758,9.758,0,0,0-.436-2.481,6.707,6.707,0,0,0-.731-1.628,3.245,3.245,0,0,0-.858-.934,1.9,1.9,0,0,0-.972-.365c-.285-.019-.315.011-.315.287q0,2.194,0,4.387c0,2.514.006,5.028,0,7.542a1.571,1.571,0,0,0,.824,1.436,2.5,2.5,0,0,0,1.139.331v.248Z" transform="translate(0 -5.199)" fill="#333"/>
    <path id="Path_419" data-name="Path 419" d="M226.079,20.876v-.23c.2-.037.4-.064.589-.113a2.023,2.023,0,0,0,.911-.5,1.481,1.481,0,0,0,.465-1.122q-.007-4.443,0-8.886,0-1.544,0-3.089c0-.271-.029-.3-.3-.286a1.884,1.884,0,0,0-.994.369,3.029,3.029,0,0,0-.741.771,6.781,6.781,0,0,0-.937,2.164,9.086,9.086,0,0,0-.317,2.1c0,.029-.007.057-.012.1h-.175c-.051-.158-.064-5.649-.013-5.926h9.78v5.9a.2.2,0,0,1-.059.028c-.043,0-.086,0-.138,0a.683.683,0,0,1-.017-.092,9.987,9.987,0,0,0-.392-2.377,6.96,6.96,0,0,0-.672-1.6,3.4,3.4,0,0,0-.867-1.015,1.946,1.946,0,0,0-1.024-.411c-.307-.024-.34.008-.34.31q0,4.588,0,9.177c0,.9.009,1.806,0,2.708a1.58,1.58,0,0,0,.855,1.465,2.508,2.508,0,0,0,1.1.319v.247Z" transform="translate(-192.187 -5.322)" fill="#333"/>
    <path id="Path_420" data-name="Path 420" d="M345.191,15.31a.773.773,0,0,1,.014.1c0,.044-.005.089-.009.146h-5.32c0-.039-.009-.074-.01-.109s0-.073.005-.123c.095-.018.188-.037.281-.052a1.224,1.224,0,0,0,.883-.623,2.014,2.014,0,0,0,.258-.894c.008-.1.006-.209.006-.313q0-5.64,0-11.279a5.106,5.106,0,0,0-.08-.977A1.059,1.059,0,0,0,340.2.241C340.1.225,340,.213,339.88.2V0h3.884c0,.095.008.189.009.282q0,4.308,0,8.616,0,2.328,0,4.655a2,2,0,0,0,.163.85,1.424,1.424,0,0,0,1.146.892l.111.016" transform="translate(-290.918)" fill="#333"/>
    <path id="Path_421" data-name="Path 421" d="M490.005,30.577v-.2h3.987v.862c.1-.079.153-.125.209-.17.246-.194.484-.4.739-.581a2.156,2.156,0,0,1,1.472-.435,2.433,2.433,0,0,1,1.924,1.113,1.627,1.627,0,0,1-.229,2.089,1.294,1.294,0,0,1-1.232.369,1.593,1.593,0,0,1-1.336-1.14,1.474,1.474,0,0,1,.046-.9.542.542,0,0,0-.015-.531.807.807,0,0,0-1.065.343,2.84,2.84,0,0,0-.432,1.212,7.152,7.152,0,0,0-.079,1c-.007,1.947,0,3.894,0,5.841a1.45,1.45,0,0,0,1.315,1.562l.1.015v.245h-5.4v-.237c.065-.011.129-.023.193-.033a1.465,1.465,0,0,0,1.229-1.418c0-.059,0-.119,0-.179q0-3.525,0-7.05a2.31,2.31,0,0,0-.1-.749,1.364,1.364,0,0,0-1.185-1.013l-.137-.018" transform="translate(-419.433 -25.721)" fill="#333"/>
    <path id="Path_422" data-name="Path 422" d="M616.927,33.621a6.082,6.082,0,0,0-.956-2.009,3.106,3.106,0,0,0-1.264-1.042,2.221,2.221,0,0,0-2.418.3c-.174.14-.332.3-.5.45-.034.031-.074.056-.144.109v-.793h-4v.191c.08.017.152.035.224.045a1.5,1.5,0,0,1,1.206,1.46q-.017,6.066,0,12.132a1.049,1.049,0,0,1-.358.811,1.667,1.667,0,0,1-.72.392c-.128.033-.26.053-.394.079-.006.082-.01.156-.015.23h5.6v-.22c-.252-.048-.484-.072-.7-.138a1.265,1.265,0,0,1-.99-1.321c0-1.171,0-2.343,0-3.514a1.841,1.841,0,0,1,.021-.183c.227.179.426.347.636.5a2.116,2.116,0,0,0,2.477.1,3.326,3.326,0,0,0,.967-.856,7.911,7.911,0,0,0,1.623-4.244,6.71,6.71,0,0,0-.29-2.475m-2.183,3.4a9.21,9.21,0,0,1-.392,2.533,4.279,4.279,0,0,1-.334.778,1.842,1.842,0,0,1-.411.494.992.992,0,0,1-1.407-.108,2.056,2.056,0,0,1-.407-.74,6.38,6.38,0,0,1-.309-1.778c-.032-.7-.04-1.4-.054-1.949.02-.847.025-1.54.055-2.233a7.4,7.4,0,0,1,.308-1.915,2.681,2.681,0,0,1,.386-.8,1.27,1.27,0,0,1,.779-.524.9.9,0,0,1,.942.319,2.715,2.715,0,0,1,.362.612,5.455,5.455,0,0,1,.361,1.471,22.779,22.779,0,0,1,.122,3.842" transform="translate(-520.076 -25.974)" fill="#333"/>
    <path id="Path_423" data-name="Path 423" d="M436.261,24.424a2.753,2.753,0,0,0-1.425-2.033,4.162,4.162,0,0,0-1.3-.473c-.69-.122-1.386-.208-2.078-.319a8.37,8.37,0,0,1-.874-.182.975.975,0,0,1-.367-.2.348.348,0,0,1-.009-.557c.053-.053.109-.1.158-.159a.353.353,0,0,1,.252-.119c.638-.068,1.277-.132,1.912-.221a5.016,5.016,0,0,0,1.621-.487,2.517,2.517,0,0,0,1.253-1.345,3.929,3.929,0,0,0,.159-2.437,3.293,3.293,0,0,0-1.8-2.168l-.264-.134.267-.1a3.477,3.477,0,0,0,1.138-.609,1.329,1.329,0,0,0,.5-.8,1.8,1.8,0,0,0-.212-1.21,1.1,1.1,0,0,0-.71-.542,1.512,1.512,0,0,0-.986.093,1.009,1.009,0,0,0-.623.768,1.157,1.157,0,0,0,.448,1.23l.4.288a.434.434,0,0,1-.276.4,3.876,3.876,0,0,1-.517.209c-.485.116-.974.218-1.464.31a8.148,8.148,0,0,0-1.348.318,2.268,2.268,0,0,0-1.463,1.575,4.888,4.888,0,0,0-.172,1.661,2.892,2.892,0,0,0,1.3,2.31c.2.14.42.256.631.382.055.033.112.063.2.111l-.2.1c-.282.135-.569.262-.846.407a2.685,2.685,0,0,0-.747.565,1.357,1.357,0,0,0-.261,1.534,1.667,1.667,0,0,0,.583.666,3.073,3.073,0,0,0,1.238.49,1.038,1.038,0,0,1,.14.052c-.138.075-.24.136-.346.186-.257.12-.52.227-.773.354a6.375,6.375,0,0,0-.7.392,1.536,1.536,0,0,0-.686,1.033,1.827,1.827,0,0,0,.445,1.578,3.2,3.2,0,0,0,.87.7,5.908,5.908,0,0,0,1.714.631l.653.138h.807c.115-.029.229-.066.345-.086a4.724,4.724,0,0,0,2.058-.881,3.4,3.4,0,0,0,1.335-1.9,3.579,3.579,0,0,0,.021-1.51m-5.545-7.574a6.758,6.758,0,0,1,.17-1.775,2.393,2.393,0,0,1,.324-.78.987.987,0,0,1,1.687-.028,2.709,2.709,0,0,1,.442,1.161,7.715,7.715,0,0,1-.161,3.389,2.772,2.772,0,0,1-.294.672.86.86,0,0,1-1.264.262,1.347,1.347,0,0,1-.47-.53,3.372,3.372,0,0,1-.352-1.1c-.034-.213-.064-.428-.078-.643s0-.418,0-.626M434.9,27.237a2.6,2.6,0,0,1-.876.751,4.155,4.155,0,0,1-1.77.5,2.71,2.71,0,0,1-.926-.126,3.931,3.931,0,0,1-1.53-.807,1.486,1.486,0,0,1-.6-1.106,2.271,2.271,0,0,1,.752-1.776,2.607,2.607,0,0,1,1.624-.664c.111-.008.224,0,.336,0a5.009,5.009,0,0,1,2,.4,2.643,2.643,0,0,1,.752.477,1.758,1.758,0,0,1,.238,2.352" transform="translate(-366.341 -8.805)" fill="#333"/>
    <path id="Path_424" data-name="Path 424" d="M558.9,38.263a1.107,1.107,0,0,1-.586.694.672.672,0,0,1-.943-.327.959.959,0,0,1-.1-.273,5.031,5.031,0,0,1-.075-.709c-.006-2.014,0-4.028,0-6.042,0-.164,0-.329-.01-.492a2.6,2.6,0,0,0-.788-1.731,3.046,3.046,0,0,0-1.357-.748,4.71,4.71,0,0,0-2.218-.023,4.508,4.508,0,0,0-1.8.758A2.307,2.307,0,0,0,550.028,31a1.577,1.577,0,0,0,1.912,1.756,1.449,1.449,0,0,0,1.126-1.256,1.415,1.415,0,0,0-.61-1.483.514.514,0,0,1-.067-.837,1.287,1.287,0,0,1,.565-.305,1.233,1.233,0,0,1,1.563.69,2.579,2.579,0,0,1,.159.44,4.651,4.651,0,0,1,.123,1.6,2.227,2.227,0,0,1-1.282,1.914,4.743,4.743,0,0,1-.489.221c-.377.14-.759.268-1.138.4a4.851,4.851,0,0,0-1.268.6A2.031,2.031,0,0,0,549.788,36a3.826,3.826,0,0,0,.365,2.625,2.323,2.323,0,0,0,.758.87,2.673,2.673,0,0,0,2.706.194,2.06,2.06,0,0,0,1.155-1.157c0-.007.022-.009.044-.017.057.11.111.223.173.332a2.052,2.052,0,0,0,1.264,1.034,2.606,2.606,0,0,0,1.2.021,2.026,2.026,0,0,0,1.677-1.488,1.185,1.185,0,0,0,.024-.151Zm-4.148-2.672c0,.566,0,1.132,0,1.7a2.465,2.465,0,0,1-.117.814,1.19,1.19,0,0,1-1.345.827.888.888,0,0,1-.564-.334,2.3,2.3,0,0,1-.441-.894,3.7,3.7,0,0,1-.085-1.768,2.362,2.362,0,0,1,.433-.971,7.187,7.187,0,0,1,1.231-1.293,3.111,3.111,0,0,1,.589-.354c.145-.07.222-.023.266.134a1.356,1.356,0,0,1,.045.352c0,.6,0,1.192,0,1.788Z" transform="translate(-470.53 -24.387)" fill="#333"/>
    <path id="Path_425" data-name="Path 425" d="M298.682,35.274a5.331,5.331,0,0,0-1-2.222,2.868,2.868,0,0,0-3.226-1,3.419,3.419,0,0,0-1.73,1.294,6.609,6.609,0,0,0-1.288,5.105,6.439,6.439,0,0,0,1.242,2.938,3.78,3.78,0,0,0,1.513,1.229,2.7,2.7,0,0,0,1.878.16,2.743,2.743,0,0,0,1.27-.846,5.484,5.484,0,0,0,1.338-3.02,4.516,4.516,0,0,0,0-.576h-.219c-.062.414-.1.8-.179,1.179a4.819,4.819,0,0,1-.884,2.009,2.178,2.178,0,0,1-.959.749,1.511,1.511,0,0,1-1.939-.6,4.183,4.183,0,0,1-.386-.8,6.626,6.626,0,0,1-.352-1.794c-.037-.468-.047-.939-.053-1.408,0-.328.019-.345.339-.351.388-.008.777-.01,1.165-.01q1.614,0,3.228,0c.236,0,.268-.016.329-.243a1.813,1.813,0,0,0,.059-.418,5.642,5.642,0,0,0-.145-1.376m-2.7,1.6h-.828v.008h-.963c-.348,0-.437-.063-.448-.4-.013-.409-.01-.819.013-1.227a6.086,6.086,0,0,1,.265-1.559,4.569,4.569,0,0,1,.358-.813,1.215,1.215,0,0,1,.368-.381.8.8,0,0,1,1.076.131,1.714,1.714,0,0,1,.346.6,4.407,4.407,0,0,1,.267,1.241c.043.624.067,1.249.082,1.874.012.516-.018.535-.537.535" transform="translate(-249.385 -27.308)" fill="#333"/>
    <path id="Path_426" data-name="Path 426" d="M376.605,37.328q2.006-.006,4.012-.008c.127,0,.254-.007.381,0a.2.2,0,0,0,.232-.16,2.106,2.106,0,0,0,.087-.479,6.77,6.77,0,0,0-.056-.892,5.846,5.846,0,0,0-.764-2.249,3.6,3.6,0,0,0-1.012-1.122,2.926,2.926,0,0,0-3.361.05,4.277,4.277,0,0,0-1.26,1.378,6.718,6.718,0,0,0-.95,4.545,6.584,6.584,0,0,0,1.2,2.954,3.777,3.777,0,0,0,1.573,1.291,2.719,2.719,0,0,0,1.88.151,2.785,2.785,0,0,0,1.3-.882,5.516,5.516,0,0,0,1.3-2.966,1.512,1.512,0,0,0,0-.589h-.255c-.009.089-.014.163-.024.236-.051.361-.082.727-.161,1.082a4.666,4.666,0,0,1-.8,1.829,2.213,2.213,0,0,1-.964.776,1.564,1.564,0,0,1-1.977-.567,3.428,3.428,0,0,1-.424-.86,7.319,7.319,0,0,1-.352-1.862,10.154,10.154,0,0,1,.015-1.63c.137-.01.261-.026.386-.026m-.037-3.805a2.1,2.1,0,0,1,.5-.886.836.836,0,0,1,1.281.052,1.561,1.561,0,0,1,.265.437,5.26,5.26,0,0,1,.23.768,9.989,9.989,0,0,1,.164,1.98,7.559,7.559,0,0,1-.024.781c-.018.2-.058.229-.257.229q-1.042.005-2.084,0a3.193,3.193,0,0,1-.368-.045,3.657,3.657,0,0,1-.071-.447,8.255,8.255,0,0,1,.361-2.869" transform="translate(-319.994 -27.317)" fill="#333"/>
    <path id="Path_427" data-name="Path 427" d="M144.983,35.027a5.045,5.045,0,0,0-1.025-2.09,2.862,2.862,0,0,0-3.145-.875,3.338,3.338,0,0,0-1.627,1.18,6.617,6.617,0,0,0-1.373,5.231,6.459,6.459,0,0,0,1.116,2.777,3.89,3.89,0,0,0,1.518,1.326,2.757,2.757,0,0,0,2.024.2,2.854,2.854,0,0,0,1.392-1.012,5.557,5.557,0,0,0,1.162-2.818,4.852,4.852,0,0,0,0-.607,1.088,1.088,0,0,0-.116-.011,1.011,1.011,0,0,0-.112.012c-.042.341-.067.661-.122.975a5.129,5.129,0,0,1-.813,2.088,2.309,2.309,0,0,1-.929.82,1.566,1.566,0,0,1-2.086-.551,3.633,3.633,0,0,1-.387-.778,8.275,8.275,0,0,1-.383-3.266c.005-.088.019-.176.032-.28.111-.01.214-.026.316-.027q1.2-.008,2.4-.01c.658,0,1.315,0,1.973,0,.22,0,.255-.013.31-.209a1.907,1.907,0,0,0,.069-.461,5.878,5.878,0,0,0-.2-1.616m-2.094,1.5c-.019.305-.074.358-.382.358-.612,0-1.225,0-1.837,0-.163,0-.325-.024-.521-.04a6.394,6.394,0,0,1-.07-.694,8.247,8.247,0,0,1,.341-2.515,4.662,4.662,0,0,1,.35-.769.968.968,0,0,1,.473-.429.79.79,0,0,1,.907.171,1.664,1.664,0,0,1,.381.625,5.156,5.156,0,0,1,.305,1.506c.037.55.039,1.1.056,1.653,0,.045,0,.09,0,.134" transform="translate(-117.89 -27.311)" fill="#333"/>
    <path id="Path_428" data-name="Path 428" d="M783.25,42.569q-2.665,0-3.628-1.618a5.247,5.247,0,0,1-.479-3.894,7.555,7.555,0,0,1,2.134-3.88,5.889,5.889,0,0,1,4.326-1.641q2.666,0,3.623,1.641a5.285,5.285,0,0,1,.484,3.88,7.509,7.509,0,0,1-2.139,3.894,5.921,5.921,0,0,1-4.321,1.618m3.624-5.512a3.507,3.507,0,0,0-.128-2.4,1.712,1.712,0,0,0-1.646-.839,2.682,2.682,0,0,0-2,.839,4.791,4.791,0,0,0-1.148,2.4,3.523,3.523,0,0,0,.128,2.4,1.709,1.709,0,0,0,1.646.844,2.676,2.676,0,0,0,2-.844,4.827,4.827,0,0,0,1.148-2.4" transform="translate(-666.79 -26.995)" fill="#808485"/>
    <path id="Path_429" data-name="Path 429" d="M860.188,35.753l-1.48,6.963h-2.77l1.328-6.289a2.606,2.606,0,0,0,.048-1.252q-.228-.8-1.347-.8a2.407,2.407,0,0,0-2.134,1.167,4.626,4.626,0,0,0-.6,1.575l-1.186,5.6h-2.694l2.192-10.321h2.609l-.322,1.508a6.282,6.282,0,0,1,1.233-1.148,4.047,4.047,0,0,1,2.248-.626,3.309,3.309,0,0,1,2.443.84,2.943,2.943,0,0,1,.432,2.784" transform="translate(-727.028 -27.502)" fill="#808485"/>
    <path id="Path_430" data-name="Path 430" d="M924.6,22.532h-2.7L924.869,8.55h2.7Z" transform="translate(-789.125 -7.318)" fill="#808485"/>
    <path id="Path_431" data-name="Path 431" d="M951.319,11.684h2.742l-2.192,10.34h-2.741Zm3.007-1.233h-2.741l.531-2.495h2.741Z" transform="translate(-812.432 -6.81)" fill="#808485"/>
    <path id="Path_432" data-name="Path 432" d="M987.191,35.753l-1.48,6.963h-2.77l1.328-6.289a2.608,2.608,0,0,0,.048-1.252q-.228-.8-1.347-.8a2.407,2.407,0,0,0-2.135,1.167,4.628,4.628,0,0,0-.6,1.575l-1.186,5.6h-2.694l2.191-10.321h2.609l-.323,1.508a6.285,6.285,0,0,1,1.233-1.148,4.046,4.046,0,0,1,2.248-.626,3.307,3.307,0,0,1,2.443.84,2.941,2.941,0,0,1,.432,2.784" transform="translate(-835.74 -27.502)" fill="#808485"/>
    <path id="Path_433" data-name="Path 433" d="M1058.772,33.942a4.369,4.369,0,0,1,.332,2.134,13.292,13.292,0,0,1-.342,2.049h-7.077a2.132,2.132,0,0,0,.512,2.182,1.928,1.928,0,0,0,1.262.389,2.352,2.352,0,0,0,1.461-.474,3.3,3.3,0,0,0,.655-.711h2.76a4.556,4.556,0,0,1-1.356,1.869,5.774,5.774,0,0,1-4.041,1.508,4.284,4.284,0,0,1-3.211-1.271q-1.238-1.271-.631-4.136a7.2,7.2,0,0,1,2.234-4.117,5.711,5.711,0,0,1,3.837-1.432,4.781,4.781,0,0,1,2.225.484,2.966,2.966,0,0,1,1.38,1.527m-6.64,2.4h4.2a1.979,1.979,0,0,0-.309-1.627,1.648,1.648,0,0,0-1.332-.554,2.248,2.248,0,0,0-1.58.588,3.753,3.753,0,0,0-.982,1.594" transform="translate(-897.831 -27.332)" fill="#808485"/>
  </g>
</svg>
